FrancaisLe soleil des voyous, dvdrip.avi
Format                                   : AVI
Format/Info                              : Audio Video Interleave
File size                                : 683 MiB
Duration                                 : 1h 37mn
Overall bit rate                         : 980 Kbps
Writing library                          : VirtualDub build 13870/release

Video
ID                                       : 0
Format                                   : MPEG-4 Visual
Codec ID                                 : DIV3
Codec ID/Hint                            : DivX 3 Low
Duration                                 : 1h 37mn
Bit rate                                 : 907 Kbps
Width                                    : 512 pixels
Height                                   : 232 pixels
Display aspect ratio                     : 2.2:1
Frame rate                               : 25.000 fps
Color space                              : YUV
Chroma subsampling                       : 4:2:0
Bit depth                                : 8 bits
Compression mode                         : Lossy
Bits/(Pixel*Frame)                       : 0.305
Stream size                              : 632 MiB (92%)

Audio
ID                                       : 1
Format                                   : MPEG Audio
Format version                           : Version 1
Format profile                           : Layer 3
Codec ID                                 : 55
Codec ID/Hint                            : MP3
Duration                                 : 1h 37mn
Bit rate mode                            : Constant
Bit rate                                 : 64.0 Kbps
Channel(s)                               : 1 channel
Sampling rate                            : 44.1 KHz
Compression mode                         : Lossy
Stream size                              : 44.6 MiB (7%)
Alignment                                : Split accross interleaves
Interleave, duration                     : 40 ms (1.00 video frame)
Interleave, preload duration             : 500 ms
Writing library                          : LAME3.92 
Encoding settings                        : -m m -V 4 -q 2 -lowpass 13.7 -b 64
